<svg width="32" height="32" viewBox="0 0 32 32" fill="none" xmlns="http://www.w3.org/2000/svg">
  <rect width="32" height="32" rx="6" fill="#2563EB"/>
  <path d="M16 6C13.79 6 12 7.79 12 10V12H10C8.9 12 8 12.9 8 14V24C8 25.1 8.9 26 10 26H22C23.1 26 24 25.1 24 24V14C24 12.9 23.1 12 22 12H20V10C20 7.79 18.21 6 16 6ZM16 8C17.1 8 18 8.9 18 10V12H14V10C14 8.9 14.9 8 16 8ZM10 14H22V24H10V14ZM16 16C14.9 16 14 16.9 14 18C14 19.1 14.9 20 16 20C17.1 20 18 19.1 18 18C18 16.9 17.1 16 16 16Z" fill="white"/>
</svg>